<?xml version="1.0" encoding="UTF-8"?>
<svg id="Capa_2" xmlns="http://www.w3.org/2000/svg" version="1.1" viewBox="0 0 186.3 180.6">
  <!-- Generator: Adobe Illustrator 29.1.0, SVG Export Plug-In . SVG Version: 2.1.0 Build 142)  -->
  <path fill="#a52323" d="M155,58.6c-1,.2-2,.2-3.1,0-1.8-.2-3.7-.2-5.6,0-.1,0-1.7.2-4.9,1-.5,0-.4.4-.1,1.2,4.4,13.1.7,27.4-8.6,38.4-12.9,15.3-29.8,13.5-42.7,8-.4-.2-.8-.4-1.2-.6-2.7,3.6-2.2,8.6-4.2,14.4-1,3.1-4.5,6-7.5,7.1-3.2,1.1-5.9.4-8.5-1.9-6.6,5.9-12.5-2.2-17-6.9-1.8-1.9-4-3.5-5-5.9-1.9-4.2-2.9-7.7-.8-10.3.5-.6.9-1.1,1.5-1.6-.8-1.3-1.4-2.6-1.7-4.1-.4-2,0-5.2,1.1-6.9,2.4-3.8,6.5-4.9,9.9-4.4,1.4.2,6.6,1.2,9.1-1.2-9.3-19.5.7-31.9,9.2-40.3,11.5-11.2,27.4-16.2,41.7-9.6.4.2,1.9,1,2.3,1.2,1-1.5,1.9-4.5,2.6-7.4-24.9-10-66.9-14.1-88.7,23.8-17.1,29.9-14,69.2,14.1,91.5,29.5,23.4,79.1,18,101.4-13.4,11.8-16.7,24.8-42.6,6.7-72.2"/>
  <path fill="#a52323" d="M133.6,46.4c2.9,3.3,4.4,5.3,5.7,9.2.1,0,.2,0,.4,0,1.6-.3,3.2-.6,5-.6,3.1,0,5.7.8,7.8-.4.3-.2.6-.4.9-.7,1.3-1.2,1.7-3.2,1.3-5s-.6-1.6-1.6-3.2c0,0,0,0,0,0,.5-.5.9-1,1.3-1.5,1.8-2.3,2.5-4.6,0-7.9-1.4-1.9-2.9-3.6-4.5-5.2-4-4.2-7.3-9.9-13.2-4.7-2.3-2-5.2-3.9-8.1-2.9-2.6.9-3.9,3.8-4.5,6.5,0,.1,0,.3,0,.4-.5,2.2-1.7,6.2-1.8,8.7,4.1,1.9,8.3,3.9,11.3,7.3"/>
  <path fill="#a52323" d="M53.5,109c.9,2.1,2.9,3.6,4.5,5.2,4,4.2,7.3,9.9,13.2,4.7,2.3,2,4.5,2.8,7.3,1.8,2.7-1,3.5-3.6,4.1-6.5.6-2.6,1.2-5.5,1.3-8.3-6.6-2.8-10.4-6.2-12.5-9-2-2.7-2.9-4-4.1-6.4-1.2.1-2.5,0-3.7,0-3-.4-7.1-2.3-9.3-.2-1.3,1.2-1.9,2.7-1.5,4.5.4,1.8,1.3,3.3,2.3,4.9,0,0,0,0,0,0-.5.5-.9,1-1.3,1.5-1.8,2.3-1.8,4.1,0,7.9"/>
  <path fill="#a52323" d="M128.4,95.9c8.2-9.8,11.3-23.1,7.4-34.7-1.3-3.8-3.3-7.5-6.2-10.8-3-3.4-6.7-6.1-10.8-8-12.7-5.9-29.2-4.4-39.4,5.6-7.7,7.5-16.9,20-8.1,37.7,1.2,2.5,2.8,5.1,4.9,7.8,2.1,2.8,7.2,6.8,13.8,9.6,11.4,4.9,27,6.4,38.5-7.2"/>
</svg>