<svg xmlns="http://www.w3.org/2000/svg" version="1.1" xmlns:xlink="http://www.w3.org/1999/xlink" width="1000" height="1000"><style>
    #light-icon {
      display: inline;
    }
    #dark-icon {
      display: none;
    }

    @media (prefers-color-scheme: dark) {
      #light-icon {
        display: none;
      }
      #dark-icon {
        display: inline;
      }
    }
  </style><g id="light-icon"><svg xmlns="http://www.w3.org/2000/svg" version="1.1" xmlns:xlink="http://www.w3.org/1999/xlink" width="1000" height="1000"><g><g transform="matrix(31.25,0,0,31.25,0,0)"><svg xmlns="http://www.w3.org/2000/svg" version="1.1" xmlns:xlink="http://www.w3.org/1999/xlink" width="32" height="32"><svg xmlns="http://www.w3.org/2000/svg" width="32" height="32" viewBox="0 0 32 32">
  <style>
    :root {
      --colorBrandForegroundOnLightPressed: #552380;
      --colorBrandForegroundInvertedHover: #ac76d6;
      --colorBrandBackground2Pressed: #c399e2;
      --colorBrandForeground2Pressed: #331848;
    }
  </style>
  <rect width="32" height="32" fill="none"></rect>
  <!-- Ícono del pallet --> 
  <g transform="translate(4, 4)">
    <rect x="0" y="14" width="24" height="6" rx="1" fill="var(--colorBrandForegroundOnLightPressed)"></rect>
    <rect x="0" y="8" width="24" height="5" rx="1" fill="var(--colorBrandForegroundInvertedHover)"></rect>
    <rect x="0" y="2" width="24" height="5" rx="1" fill="var(--colorBrandBackground2Pressed)"></rect>
    <rect x="3" y="20" width="3" height="4" rx="0.5" fill="var(--colorBrandForeground2Pressed)"></rect>
    <rect x="10.5" y="20" width="3" height="4" rx="0.5" fill="var(--colorBrandForeground2Pressed)"></rect>
    <rect x="18" y="20" width="3" height="4" rx="0.5" fill="var(--colorBrandForeground2Pressed)"></rect>
  </g>
</svg></svg></g></g></svg></g><g id="dark-icon"><svg xmlns="http://www.w3.org/2000/svg" version="1.1" xmlns:xlink="http://www.w3.org/1999/xlink" width="1000" height="1000"><g><g transform="matrix(31.25,0,0,31.25,0,0)"><svg xmlns="http://www.w3.org/2000/svg" version="1.1" xmlns:xlink="http://www.w3.org/1999/xlink" width="32" height="32"><svg xmlns="http://www.w3.org/2000/svg" width="32" height="32" viewBox="0 0 32 32">
  <style>
    :root {
      --colorBrandForegroundOnLightPressed: #552380;
      --colorBrandForegroundInvertedHover: #7a2bbd;
      --colorBrandBackground2Pressed: #040206;
      --colorBrandForeground2Pressed: #e4cff2;
    }
  </style>
  <rect width="32" height="32" fill="none"></rect>
  <!-- Ícono del pallet --> 
  <g transform="translate(4, 4)">
    <rect x="0" y="14" width="24" height="6" rx="1" fill="var(--colorBrandForegroundOnLightPressed)"></rect>
    <rect x="0" y="8" width="24" height="5" rx="1" fill="var(--colorBrandForegroundInvertedHover)"></rect>
    <rect x="0" y="2" width="24" height="5" rx="1" fill="var(--colorBrandBackground2Pressed)"></rect>
    <rect x="3" y="20" width="3" height="4" rx="0.5" fill="var(--colorBrandForeground2Pressed)"></rect>
    <rect x="10.5" y="20" width="3" height="4" rx="0.5" fill="var(--colorBrandForeground2Pressed)"></rect>
    <rect x="18" y="20" width="3" height="4" rx="0.5" fill="var(--colorBrandForeground2Pressed)"></rect>
  </g>
</svg></svg></g></g></svg></g></svg>