<svg xmlns="http://www.w3.org/2000/svg" version="1.1" xmlns:xlink="http://www.w3.org/1999/xlink" width="512" height="512"><svg xmlns="http://www.w3.org/2000/svg" version="1.1" xmlns:xlink="http://www.w3.org/1999/xlink" xmlns:svgjs="http://svgjs.com/svgjs" width="512" height="512"><svg version="1.1" id="SvgjsSvg1034" xmlns="http://www.w3.org/2000/svg" xmlns:xlink="http://www.w3.org/1999/xlink" x="0px" y="0px" viewBox="0 0 512 512" style="enable-background:new 0 0 512 512;" xml:space="preserve">
<style type="text/css">
	.st0{fill:#3D4392;}
	.st1{fill:#FFCD28;}
</style>
<g>
	<g>
		<path class="st0" d="M381.3,37.2c3.8-2.5,5.3-7.1,8-10.6c3.6-0.5,6.9,1.5,9.8,3.4c7.1,5.1,13.6,11,19,18
			c7.2,8.7,13.6,17.9,19.4,27.5c4.7,8.5,9.6,17.2,11.4,26.9c0.9,4.4,0.7,8.9,0.9,13.3l0,0.8c-2.3,2.2-5.7,1.9-8.5,2.7
			c-3.5,0.6-6.4,2.7-9.3,4.6c-12.1,7.8-24.1,16-36,24c-10.8,6.8-21.2,14.1-31.8,21.2c-7,4.6-13.9,9.2-20.1,14.9
			c-5.5,5.2-10.9,10.5-15.7,16.4c-4,4.6-8,9.2-11.3,14.4c20.7,0.2,41.3,0,62,0.1c7.5,0.1,15-0.4,22.4,0.5
			c4.8,16.1,9.8,32.2,14.9,48.2c2,7.5,4.9,14.6,7,22.1c3.1,9.9,5.5,20,9.3,29.7c5.5,17.9,11,35.8,16.6,53.7
			c3.7,10.4,6.6,21,9.7,31.6c2,6.5,4.3,12.9,6.3,19.4c3,9.4,5.5,19,8.8,28.3c1,3,1.9,6,2.8,9c2.6,9.6,6.9,18.7,8.3,28.5
			c-86.4,0-172.7,0-259.1,0c1.5-6.1,4-11.8,5.7-17.9c2.2-7.7,5.3-15,7.4-22.7c3.1-10.9,7.6-21.3,10.6-32.1c1.6-5.8,4-11.3,5.8-17
			c4.3-14.7,9.4-29.1,14.4-43.6c3.9-12.5,7.7-25.1,12.1-37.4c7.6-0.6,15.2-0.2,22.8-0.3c14,0,28,0.1,42,0
			c-2.2-8.1-5.7-15.7-8.1-23.7c-5.8-15.3-10.8-30.8-16.5-46.1c-3.1-8.3-5.2-17-9.4-24.8c-12,19.2-23.2,38.9-34.5,58.5
			c-9.3,15.6-17.9,31.5-26.8,47.3c-10.7,17.6-21.5,35.2-34.3,51.4c-6,8.2-12.9,16.1-21.8,21.3c-8.9,5.4-20.8,5.1-29.5-0.6
			c-13-8.5-26.1-16.9-37.9-27c-8.9-7.8-17.9-15.4-25.9-24.1c-6.3-7-13.1-13.6-18.6-21.3c-4.8-6.6-9.5-13.2-14-20
			c-6.6-10.1-12-20.9-17.4-31.6c-6.9-14.1-12.2-28.9-16.9-43.9c-2.6-10.4-5.7-20.6-7.8-31.1c-1.6-7.6-3-15.7-0.8-23.3
			c2.2-7.4,8.1-13.1,14.5-17.3c10.7-6.9,22.9-10.7,35-14c23.6-7.8,48.2-11.2,72.5-16c5.7-1,11.4-1.6,17.1-2.7
			c30.3-6.4,61.4-8.9,91.4-17.2c18.6-4.8,36.7-12.4,52.3-23.8c13.1-8.6,26.2-17.1,39.2-25.9C359.3,51.1,370.5,44.5,381.3,37.2z
			 M391.6,31.5c0.2,3.6,0.8,7.2,2.3,10.5c7.1,16.3,17.1,31.2,27.5,45.6c4.1,5.6,8.5,10.8,12.8,16.2c3.4,4.1,7.5,7.6,12.5,9.5
			c0.1-3.6-0.1-7.3-1.3-10.7c-3-8.9-7.4-17.1-11.8-25.4c-9.3-16.2-20.4-32-35.4-43.5C396.5,32.1,394,31.8,391.6,31.5z M376.9,45.7
			c-16.2,10.1-31.8,21-47.7,31.5c-15,10-29.7,20.9-46.7,27.6c-11.9,5.4-24.6,8.6-37.3,11.6c-8.2,2.2-16.8,2.8-25.1,4.9
			c-8.5,2.1-17.2,3-25.8,4.6c-11.7,2.4-23.5,4.6-35.4,6.2c-18.1,2.9-36.1,6-54,10c-13.7,3.5-27.6,6.7-41,11.2
			c-7.7,2.8-15.8,5.2-22.3,10.5c-4.8,3.8-9.1,9-10,15.2c-0.9,6.4,0.9,12.8,2.1,19.1c2.2,9.8,4.1,19.7,7,29.3
			c2.7,8.3,4.9,16.7,8,24.9c3.9,10.3,8.1,20.4,12.7,30.3c6.5,13,14,25.5,23,36.9c3,3.7,5.5,7.9,9.3,10.9
			c5.3,7.3,11.9,13.4,18.1,19.7c17.3,16.7,36.6,31.3,56.9,44.1c6.9,4.7,16.3,5,23.6,1.1c5.7-3,10.3-7.7,14.4-12.6
			c5-6,9.8-12.3,14.1-18.9c2.6-4,4.7-8.4,7.8-12.1c1.9-2.4,3.5-5,4.8-7.8l0.7,0.3c23.5-39.4,45.3-79.8,68.9-119.2
			c6.6-10.2,13.4-20.4,21.4-29.6c10.2-12.5,22.7-22.9,36.2-31.6c7.4-4.6,14.3-9.9,21.7-14.3c7-4.2,13.7-9,20.5-13.5
			c9.1-5.8,17.8-12.3,27-17.9c2.6-1.6,5-3.4,7.5-5.2c-2.3-3.4-4.9-6.6-7.7-9.6c-7.4-8.3-14.7-16.7-20.9-26
			c-5.5-8.9-10.2-18.2-14.4-27.7c-1.7-3.5-3-7.3-5.8-10.2C384.2,40.3,380.6,43.4,376.9,45.7z M328.1,226.3c4,13.2,9.3,25.9,13.7,39
			c3.5,8.9,6.3,18,9.7,27c6.9,21.2,15.4,42,22.3,63.2c1.9,5.6,4.2,11,6.1,16.6c5.9,17.1,12.5,33.9,17.9,51.1
			c-23.6,0.5-47.2,0-70.9,0.2c-3.7,0.1-7.4-0.1-11-0.5c2.2-8.5,5.2-16.8,7.3-25.4c1.8-7.5,4.4-14.8,6.2-22.3
			c1.8-7.2,4.4-14.1,6.3-21.2c1.6-5.6,2.6-11.3,4.6-16.8c1.3-3.6,2.2-7.2,2.9-11c-17.6-0.1-35.3-0.1-52.9,0
			c-4.2,14.5-9.7,28.6-14.1,43c-4.9,15.9-10.7,31.5-15.6,47.4c-2.2,7.7-5.5,15.1-7.5,22.9c-3.1,11.7-8.6,22.6-11.3,34.5
			c6,0.4,12,0.3,18,0.3c64,0,128,0,192,0c6,0.1,12,0.2,18-0.4c-1.4-4.3-2.8-8.5-4-12.9c-4.2-15.5-9.7-30.6-14.2-46.1
			c-1.6-5.2-3.7-10.2-5.1-15.5c-1.7-6.5-4.1-12.8-6-19.2c-2.2-7.2-4-14.5-6.6-21.6c-2.8-7.8-4.7-15.8-7.3-23.7
			c-2.6-7.7-4.6-15.6-7.5-23.2c-1.9-5.1-3.1-10.4-4.7-15.6c-3.5-11.2-7.3-22.3-10.5-33.6c-4.1-12-7.2-24.3-11.5-36.3
			C371.1,226.3,349.6,226.4,328.1,226.3z M353.6,333c-2.7,8.2-4.2,16.7-7.1,24.8c-2.5,6.9-3.7,14.1-5.9,21
			c-3.7,10.8-6.5,22-9.1,33.1c8.2,0.5,16.3,0.1,24.5,0.2c8.4-0.1,16.9,0.2,25.3-0.2c-0.9-3.4-1.8-6.8-3-10.1
			c-5.9-16.5-11.7-33-17.6-49.4C358.1,345.9,356.6,339.2,353.6,333z"></path>
	</g>
	<path class="st0" d="M310.9,98.2c9.8,4,17.3,11.9,23.8,20c6.8,9.3,13.8,18.9,16.7,30.2c1.4,5.2,3.1,10.4,4.4,15.7
		c-1.6-2.2-3.1-4.4-4-6.9c-2.5-6.9-4.2-14.2-6.9-21c-4.3-10.3-11.8-18.7-20.1-26C320.5,105.8,315.1,102.7,310.9,98.2z"></path>
	<path class="st0" d="M301.6,101.6c2.6,5.1,3.4,10.9,5.4,16.2c2,5.8,4,11.6,7.4,16.7c3.9,6,7.7,12.2,13.1,16.9
		c6.3,6,13.7,11,18.5,18.4c-6.2-4.3-11.7-9.6-17.1-14.8C314.4,140.8,304.9,121.7,301.6,101.6z"></path>
	<path class="st0" d="M42.1,174c4.7,2.9,9.2,6,13.4,9.5c24.3,19.3,45.1,42.4,64.6,66.4c7.7,10,15.1,20.3,22.3,30.7
		c11.4,17.4,21.6,35.6,30.2,54.6c2.6,6,4.7,12.3,6.9,18.5c2.9,7.9,4.5,16.2,6.2,24.4c0.9,4,1,8.2,0.8,12.3
		c-2.5-6.5-3.4-13.5-5.7-20.1c-3.9-12-8.1-23.8-12.9-35.4c-9.5-23.1-22.3-44.6-36.8-64.9c-18-24-37.8-46.7-59-68
		C62.5,192.2,52,183.4,42.1,174z"></path>
</g>
<g>
	<path class="st1" d="M449.7,115.7c6.4,5.1,12.9,10,18,16.5c4.2,5.4,8.4,10.8,11.2,17.1c1.3,3,2.6,5.9,3.7,9
		c2.5,6.9,3.2,14.4,2.8,21.8c-0.4,8.2-3.2,16.5-8.6,22.8c-2.5,3.1-5.9,5.7-9.9,6.2c-5.9,0.8-12.5,1-17.7-2.4
		c-3.7-2.5-6.8-5.9-9.5-9.4c-7-8.9-8.2-22.1-2.6-32.1c2.5-4.3,6-8,8.4-12.4c3.8-7,6.1-14.8,6.4-22.7c0.2-4.6-1.3-9-2.3-13.4
		L449.7,115.7z"></path>
	<path class="st1" d="M328.1,226.3c21.5,0.1,43,0,64.5,0c4.2,12,7.3,24.3,11.5,36.3c3.2,11.3,7,22.4,10.5,33.6
		c1.6,5.2,2.8,10.5,4.7,15.6c2.9,7.6,4.9,15.5,7.5,23.2c2.6,7.8,4.5,15.9,7.3,23.7c2.6,7.1,4.4,14.4,6.6,21.6
		c1.9,6.4,4.3,12.7,6,19.2c1.3,5.3,3.4,10.3,5.1,15.5c4.5,15.4,10,30.5,14.2,46.1c1.2,4.3,2.6,8.6,4,12.9c-6,0.5-12,0.4-18,0.4
		c-64,0-128,0-192,0c-6,0.1-12,0.1-18-0.3c2.6-11.8,8.1-22.8,11.3-34.5c2-7.8,5.3-15.2,7.5-22.9c4.9-15.9,10.7-31.5,15.6-47.4
		c4.3-14.4,9.9-28.5,14.1-43c17.6-0.1,35.3-0.1,52.9,0c-0.7,3.7-1.6,7.4-2.9,11c-2,5.5-3,11.2-4.6,16.8c-1.9,7.1-4.5,14.1-6.3,21.2
		c-1.9,7.5-4.5,14.8-6.2,22.3c-2.1,8.6-5.1,16.9-7.3,25.4c3.6,0.3,7.3,0.5,11,0.5c23.6-0.3,47.2,0.2,70.9-0.2
		c-5.4-17.2-12-34-17.9-51.1c-1.9-5.6-4.2-11-6.1-16.6c-6.9-21.2-15.3-42-22.3-63.2c-3.4-8.9-6.2-18.1-9.7-27
		C337.4,252.3,332.2,239.5,328.1,226.3z"></path>
	<path class="st1" d="M93.8,330.4c6.8,2.7,14,4.5,20.9,7c6.5,2.3,13.4,3.5,20.3,2.8c7-0.6,13.2-4.3,20.2-5.1
		c4.2-0.5,8.5-0.3,12.8-0.2c4.8,11.6,9.1,23.5,12.9,35.4c2.3,6.6,3.2,13.6,5.7,20.1c0.1-4.1,0-8.3-0.8-12.3
		c-1.7-8.2-3.4-16.5-6.2-24.4c-2.2-6.2-4.3-12.4-6.9-18.5c8.8-0.6,17.6-0.3,26.4-0.4c5.5-0.1,11.1-0.2,16.2,1.9
		c6.1,2.3,12,5,18.2,7.2c-1.3,2.8-2.8,5.4-4.8,7.8c-3.1,3.7-5.1,8.1-7.8,12.1c-4.3,6.6-9.1,12.9-14.1,18.9
		c-4.1,4.9-8.7,9.6-14.4,12.6c-7.3,3.9-16.7,3.6-23.6-1.1c-20.3-12.9-39.5-27.5-56.9-44.1C105.6,343.7,99,337.6,93.8,330.4z"></path>
</g>
</svg><style>@media (prefers-color-scheme: light) { :root { filter: none; } }
@media (prefers-color-scheme: dark) { :root { filter: none; } }
</style></svg><style>@media (prefers-color-scheme: light) { :root { filter: none; } }
@media (prefers-color-scheme: dark) { :root { filter: contrast(0.3846153846153846) brightness(4.5); } }
</style></svg>