<?xml version="1.0" encoding="UTF-8"?>
<svg id="Capa_2" data-name="Capa 2" xmlns="http://www.w3.org/2000/svg" viewBox="0 0 678.8012 141.7498">
  <defs>
    <style>
      .cls-1 {
        fill: #7b4fa0;
      }

      .cls-2 {
        fill: none;
      }

      .cls-3 {
        fill: #7c4fa0;
      }

      .cls-4 {
        fill: #1e72b9;
      }

      .cls-5 {
        fill: #f57f20;
      }

      .cls-6 {
        fill: #3d52a3;
      }

      .cls-7 {
        fill: #1f72ba;
      }
    </style>
  </defs>
  <g id="Capa_2-2" data-name="Capa 2">
    <rect class="cls-2" width="678.8012" height="141.7498"/>
    <g>
      <g>
        <rect class="cls-1" x="26.8749" y="11.911" width="88" height="18" rx="1" ry="1"/>
        <rect class="cls-1" x="26.8749" y="33.8859" width="88" height="18" rx="1" ry="1"/>
        <rect class="cls-1" x="26.8749" y="55.8609" width="88" height="18" rx="1" ry="1"/>
        <rect class="cls-1" x="26.8749" y="77.8358" width="88" height="18" rx="1" ry="1"/>
        <g>
          <rect class="cls-4" x="26.8749" y="99.8108" width="11" height="14.6667" rx=".5" ry=".5"/>
          <rect class="cls-4" x="65.3749" y="99.8108" width="11" height="14.6667" rx=".5" ry=".5"/>
          <rect class="cls-4" x="103.8749" y="99.8108" width="11" height="14.6667" rx=".5" ry=".5"/>
          <rect class="cls-4" x="26.8749" y="99.8108" width="88" height="4.7121" rx=".5" ry=".5"/>
        </g>
      </g>
      <rect class="cls-6" x="12.2325" y="5" width="10" height="131.7498"/>
      <rect class="cls-6" x="119.5173" y="5" width="10" height="131.7498"/>
      <rect class="cls-5" x="17.2325" y="116.607" width="107.2848" height="15.1428"/>
    </g>
    <g>
      <path class="cls-3" d="M170.6962,68c-5.9869,0-11.1453-1.2997-15.4759-3.8976-4.3313-2.5987-7.6585-6.2458-9.9838-10.9406-2.3245-4.6956-3.4868-10.2343-3.4868-16.616s1.1623-11.9356,3.4868-16.6618c2.3253-4.7254,5.6524-8.3878,9.9838-10.9864,4.3306-2.5979,9.4889-3.8976,15.4759-3.8976,4.6192,0,8.8895.8285,12.81,2.4849,3.9197,1.6563,7.1033,4.1023,9.55,7.3393,2.4459,3.2363,3.7907,7.2248,4.0343,11.9662h-13.1284c-.2741-2.4917-1.0034-4.5589-2.1886-6.2s-2.7201-2.872-4.604-3.6922c-1.8847-.8209-4.0419-1.231-6.4733-1.231-3.7685,0-6.8002.9729-9.0941,2.9179-2.2947,1.945-3.974,4.4902-5.0369,7.6356-1.0645,3.1454-1.596,6.5871-1.596,10.3251,0,3.7075.5315,7.1415,1.596,10.3022,1.063,3.1607,2.7422,5.6983,5.0369,7.6127,2.294,1.9144,5.3256,2.872,9.0941,2.872,3.9503,0,7.0728-1.0867,9.3683-3.2592,2.294-2.1725,3.6235-5.2653,3.9885-9.2767h13.1284c-.3643,5.014-1.6487,9.2461-3.8518,12.6955-2.2039,3.4493-5.2195,6.0625-9.0491,7.8403-3.8289,1.7777-8.3572,2.6674-13.5843,2.6674Z"/>
      <path class="cls-3" d="M225.4443,67.9542c-4.3459,0-8.1365-.8889-11.3736-2.6666-3.2363-1.7777-5.7517-4.3764-7.544-7.7952-1.7938-3.4188-2.6895-7.5447-2.6895-12.377,0-4.8621.8957-9.0101,2.6895-12.4442,1.7923-3.4341,4.3077-6.0556,7.544-7.8639,3.2371-1.8075,7.0125-2.7124,11.3285-2.7124,4.3756,0,8.1969.9049,11.4645,2.7124,3.2668,1.8083,5.8044,4.4299,7.6127,7.8639,1.8075,3.4341,2.7124,7.5821,2.7124,12.4442,0,4.8323-.9049,8.9582-2.7124,12.377-1.8083,3.4188-4.3459,6.0175-7.6127,7.7952-3.2676,1.7777-7.0736,2.6666-11.4194,2.6666ZM225.3993,58.7455c2.4001,0,4.2848-.6155,5.6524-1.8457,1.3677-1.231,2.3398-2.872,2.9171-4.9232.5773-2.0519.8667-4.3382.8667-6.8613,0-2.5215-.2894-4.8086-.8667-6.8605-.5773-2.0511-1.5494-3.6991-2.9171-4.9461-1.3677-1.2455-3.2523-1.8686-5.6524-1.8686-2.2795,0-4.103.6231-5.4707,1.8686-1.3677,1.247-2.3329,2.8949-2.8949,4.9461-.562,2.0519-.8431,4.339-.8431,6.8605,0,2.5231.281,4.8094.8431,6.8613.562,2.0511,1.5273,3.6922,2.8949,4.9232,1.3677,1.2302,3.1912,1.8457,5.4707,1.8457Z"/>
      <path class="cls-3" d="M255.44,67.1791V22.6873h11.6699l.1825,6.6559c1.428-1.9144,3.2897-3.5937,5.5845-5.0377,2.294-1.4425,5.2347-2.1649,8.8208-2.1649,4.3459,0,7.6814,1.3677,10.0059,4.1023,2.3253,2.7353,3.4875,6.7322,3.4875,11.9891v28.9472h-11.9433v-27.4428c0-1.58-.2054-2.9698-.6155-4.171-.4108-1.1997-1.0485-2.1267-1.9152-2.7804-.866-.6537-2.0129-.9805-3.4417-.9805-2.1878,0-4.0725.5552-5.6524,1.664-1.5807,1.1096-2.9629,2.4543-4.1481,4.0343v29.6764h-12.0349Z"/>
      <path class="cls-3" d="M325.0493,67.1791c-4.4978,0-7.9853-.5391-10.4618-1.6181-2.4772-1.0783-4.2023-2.7506-5.1744-5.0148-.9729-2.2634-1.4585-5.2195-1.4585-8.8658v-19.6934h-7.3851v-9.2996h7.3851v-10.4847h12.0349v10.4847h9.8005v9.2996h-9.8005v18.9634c0,2.3405.3261,4.0572.9797,5.1515.6529,1.0943,2.1351,1.6411,4.4444,1.6411h4.3306v9.4363h-4.6948Z"/>
      <path class="cls-3" d="M336.3541,67.1791V22.6873h11.579l.2276,7.6585c1.1241-2.6437,2.8491-4.6796,5.1744-6.1083,2.3245-1.428,5.1286-2.1428,8.4107-2.1428h.866v10.1655h-1.0943c-1.793,0-3.5181.1596-5.1736.4788-1.6571.3192-3.1531.866-4.4902,1.6411-1.3379.7751-2.4925,1.8465-3.4646,3.2141v29.5848h-12.0349Z"/>
      <path class="cls-3" d="M387.0909,67.9542c-4.3459,0-8.1365-.8889-11.3736-2.6666-3.2363-1.7777-5.7517-4.3764-7.544-7.7952-1.7938-3.4188-2.6895-7.5447-2.6895-12.377,0-4.8621.8957-9.0101,2.6895-12.4442,1.7923-3.4341,4.3077-6.0556,7.544-7.8639,3.2371-1.8075,7.0125-2.7124,11.3285-2.7124,4.3756,0,8.1969.9049,11.4645,2.7124,3.2668,1.8083,5.8044,4.4299,7.6127,7.8639s2.7124,7.5821,2.7124,12.4442c0,4.8323-.9041,8.9582-2.7124,12.377s-4.3459,6.0175-7.6127,7.7952c-3.2676,1.7777-7.0736,2.6666-11.4194,2.6666ZM387.0458,58.7455c2.4001,0,4.2848-.6155,5.6524-1.8457,1.3677-1.231,2.3398-2.872,2.9171-4.9232.5773-2.0519.8667-4.3382.8667-6.8613,0-2.5215-.2894-4.8086-.8667-6.8605-.5773-2.0511-1.5494-3.6991-2.9171-4.9461-1.3677-1.2455-3.2523-1.8686-5.6524-1.8686-2.2795,0-4.103.6231-5.4707,1.8686-1.3677,1.247-2.3329,2.8949-2.8949,4.9461-.562,2.0519-.8431,4.339-.8431,6.8605,0,2.5231.281,4.8094.8431,6.8613.562,2.0511,1.5273,3.6922,2.8949,4.9232,1.3677,1.2302,3.1912,1.8457,5.4707,1.8457Z"/>
      <path class="cls-3" d="M433.7697,67.1791c-4.4978,0-7.9861-.5391-10.4618-1.6181-2.4772-1.0783-4.2015-2.7506-5.1744-5.0148-.9729-2.2634-1.4585-5.2195-1.4585-8.8658V5.8209h12.0349v45.1294c0,2.3405.3345,4.0572,1.0019,5.1515.6689,1.0943,2.158,1.6411,4.4688,1.6411h2.7338v9.4363h-3.1447Z"/>
      <path class="cls-3" d="M476.1194,67.9542c-3.192,0-6.0709-.8209-8.6383-2.462-2.5689-1.6411-4.62-4.1404-6.1549-7.4989-1.5349-3.3577-2.3016-7.6196-2.3016-12.7863,0-5.318.7667-9.6944,2.3016-13.1292,1.5349-3.4333,3.6471-5.9938,6.3367-7.6807s5.7807-2.5299,9.2767-2.5299c3.1004,0,5.6906.646,7.7723,1.9373,2.0817,1.2921,3.7449,2.9705,4.9911,5.0369V5.8209h11.6699v61.3582h-11.1674l-.5025-6.4275c-1.4891,2.2184-3.2974,3.974-5.4249,5.2653s-4.8476,1.9373-8.1587,1.9373ZM479.0823,58.7004c2.462,0,4.565-.7216,6.3137-2.1657,1.7472-1.4433,3.0316-3.092,3.8518-4.9461v-13.1743c-.8507-2.0359-2.0893-3.7609-3.7159-5.1736-1.625-1.4135-3.502-2.1199-5.6295-2.1199-2.8881,0-5.0293,1.1852-6.4268,3.5555-1.399,2.3703-2.0969,5.851-2.0969,10.4389,0,4.5291.6598,7.925,1.9824,10.1884,1.3211,2.2649,3.2287,3.3967,5.7212,3.3967Z"/>
      <path class="cls-3" d="M531.5961,68c-4.6185,0-8.5695-.9194-11.8516-2.7583-3.2821-1.8381-5.7899-4.4902-7.5218-7.9548-1.7319-3.4646-2.5979-7.628-2.5979-12.49,0-4.7109.8431-8.7681,2.5292-12.1716,1.6876-3.4035,4.1267-6.0243,7.3172-7.8639,3.1905-1.8381,7.0041-2.7575,11.4423-2.7575,6.3809,0,11.4103,1.9373,15.0879,5.812,3.6777,3.8747,5.5165,9.3981,5.5165,16.5701,0,.365-.0153.8591-.0458,1.4815-.0305.6239-.0611,1.1019-.0916,1.4364h-29.6306c.0611,2.1275.4185,4.0954,1.0721,5.9029.6521,1.8091,1.6937,3.2676,3.1217,4.3764,1.428,1.1096,3.3127,1.664,5.6524,1.664,2.4009,0,4.3084-.5697,5.7212-1.7098,1.4143-1.1393,2.1351-2.8331,2.1657-5.0828h11.9433c-.1527,3.4646-1.0706,6.3527-2.7583,8.6612-1.6861,2.31-3.9877,4.0351-6.9063,5.1744-2.9171,1.1393-6.3061,1.7098-10.1655,1.7098ZM521.8414,39.6454h17.6873c-.0916-3.0996-.9194-5.4172-2.4849-6.9521-1.5655-1.5341-3.6242-2.3016-6.1763-2.3016-2.5536,0-4.6353.7827-6.245,2.3474-1.6113,1.5655-2.5383,3.8678-2.7812,6.9063Z"/>
    </g>
    <g>
      <path class="cls-7" d="M396.7482,135.9181v-62.1683h24.4325c4.0651,0,7.7836.7234,11.1539,2.1711,3.3719,1.4476,6.0582,3.6489,8.0606,6.6045,2.0008,2.9564,3.002,6.7283,3.002,11.3156,0,4.527-1.0012,8.268-3.002,11.2236-2.0024,2.9564-4.6887,5.1499-8.0606,6.582-3.3703,1.4322-7.0888,2.1478-11.1539,2.1478h-11.4541v22.1237h-12.9783ZM409.7266,103.3561h10.2533c2.9866,0,5.4346-.8008,7.3441-2.4016s2.8643-3.9723,2.8643-7.1136c0-3.2628-.9702-5.6806-2.9107-7.2513-1.9389-1.5699-4.3731-2.3552-7.2977-2.3552h-10.2533v19.1217Z"/>
      <path class="cls-7" d="M459.7939,136.7498c-2.4016,0-4.6423-.4851-6.7205-1.4554-2.0782-.9695-3.7572-2.448-5.0354-4.4342-1.2766-1.9861-1.9157-4.4868-1.9157-7.5051,0-4.1572,1.1776-7.29,3.5328-9.3991s5.6652-3.5405,9.9299-4.2957c4.2647-.7544,9.2305-1.1931,14.8956-1.3161v-2.448c0-2.9247-.6468-4.9263-1.9389-6.0041-1.2937-1.0778-2.9107-1.6171-4.8497-1.6171-2.2484,0-4.0806.5702-5.4965,1.7091-1.4175,1.1397-2.1246,2.9873-2.1246,5.5421h-11.4541c0-3.7874.8-6.8126,2.4016-9.0757,1.6-2.2631,3.8407-3.8794,6.7205-4.8497,2.8782-.9695,6.1959-1.4546,9.9531-1.4546,2.708,0,5.187.2391,7.4354.7157,2.2469.4782,4.2028,1.3014,5.8663,2.4713,1.6619,1.1706,2.9401,2.7637,3.833,4.78.8929,2.0171,1.3401,4.5348,1.3401,7.5515v30.2532h-11.2236l-.3234-5.7735c-1.8476,2.3405-3.9877,4.0264-6.4203,5.0578-2.4326,1.0314-5.235,1.5474-8.4057,1.5474ZM463.9503,128.2969c2.1246,0,4.1023-.5772,5.9344-1.7316,1.8322-1.1552,3.3177-2.5324,4.4582-4.134v-7.3441c-5.9437.0309-10.1001.6399-12.4708,1.8244-2.3722,1.1861-3.556,3.1181-3.556,5.7967,0,1.8786.5076,3.279,1.5242,4.2028,1.0151.9238,2.3846,1.3857,4.11,1.3857Z"/>
      <path class="cls-7" d="M513.1866,135.9181c-4.5572,0-8.0915-.5462-10.5999-1.6395-2.5099-1.0925-4.257-2.7869-5.2427-5.081-.9857-2.2933-1.4778-5.2884-1.4778-8.9829v-46.4649h12.1938v45.7252c0,2.3714.3389,4.1108,1.0151,5.2195.6778,1.1087,2.1865,1.6627,4.5278,1.6627h2.7699v9.5608h-3.1862Z"/>
      <path class="cls-7" d="M539.0056,135.9181c-4.5572,0-8.0915-.5462-10.5999-1.6395-2.5099-1.0925-4.257-2.7869-5.2427-5.081-.9857-2.2933-1.4778-5.2884-1.4778-8.9829v-46.4649h12.1938v45.7252c0,2.3714.3389,4.1108,1.0151,5.2195.6778,1.1087,2.1865,1.6627,4.5278,1.6627h2.7699v9.5608h-3.1862Z"/>
      <path class="cls-7" d="M568.6111,136.7498c-4.6794,0-8.6827-.9316-12.0081-2.7947-3.3254-1.8623-5.8663-4.5495-7.6211-8.0598s-2.6322-7.7287-2.6322-12.6549c0-4.7731.8542-8.8838,2.5626-12.3323,1.7099-3.4485,4.1812-6.1039,7.4138-7.9677,3.2326-1.8623,7.0965-2.7939,11.5934-2.7939,6.4652,0,11.5609,1.9629,15.2871,5.8888s5.5893,9.5221,5.5893,16.7889c0,.3698-.0155.8704-.0464,1.501-.0309.6321-.0619,1.1165-.0928,1.4554h-30.0218c.0619,2.1556.424,4.1495,1.0863,5.9808.6608,1.8329,1.7161,3.3107,3.163,4.4342,1.4469,1.1242,3.3564,1.6859,5.7271,1.6859,2.4326,0,4.3653-.5772,5.7967-1.7324,1.4329-1.1544,2.1633-2.8705,2.1943-5.1499h12.101c-.1547,3.5104-1.0848,6.4366-2.7947,8.7755-1.7084,2.3405-4.0404,4.0883-6.9975,5.2427-2.9556,1.1544-6.3894,1.7324-10.2997,1.7324ZM558.7277,108.0209h17.9209c-.0928-3.1405-.9316-5.4888-2.5177-7.0439-1.5861-1.5544-3.6721-2.332-6.2578-2.332-2.5873,0-4.6965.7931-6.3275,2.3784-1.6325,1.5861-2.5718,3.9189-2.8179,6.9975Z"/>
      <path class="cls-7" d="M617.2935,135.9181c-4.5572,0-8.09-.5462-10.5999-1.6395-2.5099-1.0925-4.257-2.7869-5.2412-5.081-.9857-2.2933-1.4778-5.2884-1.4778-8.9829v-19.9534h-7.4834v-9.4223h7.4834v-10.6232h12.1923v10.6232h9.9314v9.4223h-9.9314v19.2137c0,2.3714.3312,4.1108.9935,5.2195s2.1633,1.6627,4.503,1.6627h4.3885v9.5608h-4.7584Z"/>
      <path class="cls-7" d="M646.4859,136.657c-2.5254,0-4.9889-.2306-7.3906-.6925s-4.5727-1.2542-6.5116-2.3792c-1.9405-1.1234-3.4802-2.6399-4.6191-4.5495-1.1405-1.9088-1.7099-4.3104-1.7099-7.2049h11.3628c0,2.4937.8851,4.226,2.6554,5.1963,1.7703.9695,3.8407,1.4546,6.213,1.4546,2.3397,0,4.1642-.3698,5.4733-1.1087,1.3076-.7389,1.9621-1.9861,1.9621-3.7409,0-1.6929-.7691-2.9479-2.3088-3.7641-1.5397-.8155-4.2199-1.6705-8.0374-2.5633-3.2016-.7698-6.0427-1.7014-8.5217-2.7947-2.479-1.0925-4.4257-2.5556-5.8416-4.3878-1.4175-1.8314-2.1246-4.2415-2.1246-7.2281,0-2.3397.5308-4.3189,1.5923-5.9352,1.0631-1.6163,2.4945-2.9254,4.2957-3.9258s3.8253-1.7324,6.0737-2.1943,4.5727-.6925,6.9743-.6925c2.3103,0,4.5727.2391,6.7902.7157,2.2175.4782,4.2183,1.255,6.0041,2.3328s3.2094,2.5401,4.2725,4.3878c1.0615,1.8476,1.5939,4.1417,1.5939,6.8814h-11.3628c0-2.2778-.7242-3.8562-2.1711-4.7336-1.4469-.8782-3.1568-1.3169-5.1267-1.3169-2.1556,0-3.8407.2932-5.057.8774-1.2163.5857-1.8244,1.5869-1.8244,3.0028,0,.831.3853,1.5629,1.1544,2.1935.7691.6314,2.0086,1.2171,3.7185,1.7556,1.7084.5385,3.9336,1.1165,6.6741,1.7316,2.9247.6778,5.5429,1.5637,7.8517,2.6562,2.3088,1.0933,4.1409,2.5633,5.4965,4.411,1.354,1.8469,2.0318,4.2802,2.0318,7.2977,0,2.6175-.5385,4.8419-1.6171,6.6741-1.077,1.8322-2.5393,3.31-4.387,4.4334-1.8476,1.125-3.9413,1.9405-6.281,2.448-2.3413.5083-4.7738.7621-7.2977.7621Z"/>
    </g>
    <g>
      <rect class="cls-4" x="153.1814" y="122.0832" width="11" height="14.6667" rx=".5" ry=".5"/>
      <rect class="cls-4" x="191.6814" y="122.0832" width="11" height="14.6667" rx=".5" ry=".5"/>
      <rect class="cls-4" x="230.1814" y="122.0832" width="11" height="14.6667" rx=".5" ry=".5"/>
      <rect class="cls-4" x="153.1814" y="122.0832" width="88" height="4.7121" rx=".5" ry=".5"/>
    </g>
    <g>
      <rect class="cls-4" x="204.2287" y="96.3243" width="11" height="14.6667" rx=".5" ry=".5" transform="translate(44.4048 -61.8689) rotate(18.7344)"/>
      <rect class="cls-4" x="240.6889" y="108.6898" width="11" height="14.6667" rx=".5" ry=".5" transform="translate(50.3081 -72.9241) rotate(18.7344)"/>
      <rect class="cls-4" x="277.1491" y="121.0553" width="11" height="14.6667" rx=".5" ry=".5" transform="translate(56.2114 -83.9792) rotate(18.7344)"/>
      <rect class="cls-4" x="203.7875" y="108.9535" width="88" height="4.7121" rx=".5" ry=".5" transform="translate(48.8789 -73.6872) rotate(18.7344)"/>
    </g>
    <g>
      <rect class="cls-4" x="294.5994" y="122.0831" width="11" height="14.6667" rx=".5" ry=".5"/>
      <rect class="cls-4" x="333.0994" y="122.0831" width="11" height="14.6667" rx=".5" ry=".5"/>
      <rect class="cls-4" x="371.5994" y="122.0831" width="11" height="14.6667" rx=".5" ry=".5"/>
      <rect class="cls-4" x="294.5994" y="122.0831" width="88" height="4.7121" rx=".5" ry=".5"/>
    </g>
    <g>
      <rect class="cls-4" x="290.0994" y="107.4164" width="11" height="14.6667" rx=".5" ry=".5"/>
      <rect class="cls-4" x="328.5994" y="107.4164" width="11" height="14.6667" rx=".5" ry=".5"/>
      <rect class="cls-4" x="367.0994" y="107.4164" width="11" height="14.6667" rx=".5" ry=".5"/>
      <rect class="cls-4" x="290.0994" y="107.4164" width="88" height="4.7121" rx=".5" ry=".5"/>
    </g>
    <g>
      <rect class="cls-4" x="292.3541" y="92.7497" width="11" height="14.6667" rx=".5" ry=".5"/>
      <rect class="cls-4" x="330.8541" y="92.7497" width="11" height="14.6667" rx=".5" ry=".5"/>
      <rect class="cls-4" x="369.3541" y="92.7497" width="11" height="14.6667" rx=".5" ry=".5"/>
      <rect class="cls-4" x="292.3541" y="92.7497" width="88" height="4.7121" rx=".5" ry=".5"/>
    </g>
    <g>
      <rect class="cls-4" x="158.4972" y="105.8498" width="11" height="14.6667" rx=".5" ry=".5" transform="translate(-34.2983 93.5773) rotate(-28.965)"/>
      <rect class="cls-4" x="192.1814" y="87.2052" width="11" height="14.6667" rx=".5" ry=".5" transform="translate(-21.0558 107.5576) rotate(-28.965)"/>
      <rect class="cls-4" x="225.8656" y="68.5606" width="11" height="14.6667" rx=".5" ry=".5" transform="translate(-7.8133 121.5379) rotate(-28.965)"/>
      <rect class="cls-4" x="151.271" y="87.8278" width="88" height="4.7121" rx=".5" ry=".5" transform="translate(-19.2484 105.8456) rotate(-28.965)"/>
    </g>
  </g>
</svg>