<?xml version="1.0" encoding="UTF-8"?>
<svg id="Capa_1" xmlns="http://www.w3.org/2000/svg" version="1.1" viewBox="0 0 24 24" fill="currentColor">
  <path fill="currentColor" d="M3.8,8.5c0-.4.3-.8.8-.8h1.2c.4,0,.8.3.8.8s-.3.8-.8.8h-1.2c-.4,0-.8-.3-.8-.8ZM3.8,12c0-.4.3-.8.8-.8h1.2c.4,0,.8.3.8.8s-.3.8-.8.8h-1.2c-.4,0-.8-.3-.8-.8ZM3.8,15.5c0-.4.3-.8.8-.8h1.2c.4,0,.8.3.8.8s-.3.8-.8.8h-1.2c-.4,0-.8-.3-.8-.8ZM4.2,3c-1.8,0-3.2,1.5-3.2,3.2v11.5c0,1.8,1.5,3.2,3.2,3.2h15.5c1.8,0,3.2-1.5,3.2-3.2V6.2c0-1.8-1.5-3.2-3.2-3.2H4.2ZM19.8,19.5h-10.8V4.5h10.8c1,0,1.8.8,1.8,1.8v11.5c0,1-.8,1.8-1.8,1.8ZM4.2,4.5h3.2v15h-3.2c-1,0-1.8-.8-1.8-1.8V6.2c0-1,.8-1.8,1.8-1.8Z"/>
  <path fill="currentColor" d="M20.4,12.2s0,0,0-.1c0,0,0,0,0-.1,0,0,0,0,0,0s0,0,0,0c0,0,0,0,0-.1,0,0,0,0,0-.1,0,0,0,0,0,0,0,0,0,0,0,0,0,0,0,0,0,0,0,0,0,0,0,0,0,0,0,0,0,0,0,0,0,0,0,0l-2.8-2.4c-.3-.3-.8-.2-1.1,0-.3.3-.2.8,0,1.1l1.3,1.1h-6.9c-.4,0-.8.3-.8.8s.3.8.8.8h6.9l-1.3,1.1c-.3.3-.4.7,0,1.1.3.3.7.4,1.1,0l2.8-2.4s0,0,0,0c0,0,0,0,0,0,0,0,0,0,0,0,0,0,0,0,0,0,0,0,0,0,0,0,0,0,0,0,0,0Z"/>
</svg>