<?xml version="1.0" encoding="UTF-8"?>
<svg id="Capa_2" data-name="Capa 2" xmlns="http://www.w3.org/2000/svg" viewBox="0 0 256 256">
  <defs>
    <style>
      .cls-1 {
        fill: #ffcb05;
      }

      .cls-1, .cls-2, .cls-3 {
        fill-rule: evenodd;
      }

      .cls-2, .cls-4 {
        fill: #2c3790;
      }

      .cls-3 {
        fill: none;
        stroke: #2c3790;
        stroke-miterlimit: 22.9256;
        stroke-width: .1621px;
      }
    </style>
  </defs>
  <g>
    <polygon class="cls-1" points="195.3642 99.2458 237.5476 234.2964 110.5171 234.2964 137.9437 151.2128 171.6264 151.2128 157.1907 201.8972 191.8354 201.8972 155.266 99.2458 195.3642 99.2458"/>
    <path class="cls-4" d="M243,238.3057H104.9709l30.0735-91.1029h33.0495l-18.5119-51.9666h48.7316l44.6863,143.0695ZM116.0647,230.2861h116.0295l-39.6782-127.0303h-31.4644l15.657,43.947h.3279l-.1462.5138,20.7298,58.1902h-45.6407l14.4353-50.6843h-25.4727l-24.7772,75.0637ZM162.5011,197.8871h23.6495l-13.1425-36.8902-10.5069,36.8902Z"/>
  </g>
  <g>
    <polygon class="cls-1" points="36.9551 132.1592 50.1544 136.2136 55.2441 136.2136 61.369 134.2297 68.5294 134.2297 82.85 134.2297 93.0293 138.284 88.975 141.3033 83.54 152.6907 75.6895 157.6944 70.0821 159.1609 64.4747 156.6592 58.3498 152.6047 52.2248 147.4286 46.0996 142.3385 36.9551 132.1592"/>
    <g>
      <path class="cls-2" d="M164.6323,32.5194c-2.7607-4.2273-5.521-7.5054-8.1954-10.0072-2.6743-2.5018-4.3134-3.537-5.0037-3.1057-.7763.5177-.345,2.3294,1.2078,5.6074,1.5529,3.2782,3.7095,6.9876,6.4702,11.1285,2.8467,4.2274,5.521,7.7644,8.0228,10.6111s4.1409,3.9685,4.9172,3.537c.5178-.345.1725-2.3292-1.1216-5.9524-1.4666-3.6234-3.537-7.5918-6.2973-11.8187h0ZM150.743,23.0299h0c3.3642,7.2465,5.9525,12.2498,7.8504,15.0102,1.8977,2.6743,5.1761,6.5566,9.6619,11.4738.6039.6039.345,1.2078-.8627,1.898-1.1214.6038-1.9841,1.2076-2.6743,1.639-4.6586,3.1057-9.2306,6.1249-13.8892,9.2306-4.6587,3.0193-9.2309,6.0389-13.7168,9.0582-7.3329,4.9175-14.1481,12.6814-20.5318,23.4649-6.2978,10.7836-12.3366,21.3086-18.1165,31.5744-5.78,10.2661-11.2145,18.7203-16.4771,25.363-5.2625,6.6428-10.4386,8.1954-15.5283,4.7447-15.0968-9.7483-26.4842-20.4454-34.3346-32.0918-7.764-11.5598-13.4578-26.6567-16.9084-45.1183-1.2938-5.8664,2.0704-10.2657,10.1796-13.1125,8.1093-2.8467,17.8576-5.2625,29.4176-7.2465,11.5598-1.9841,23.3786-4.0545,35.4562-6.2113,12.0777-2.1568,21.6532-5.6074,28.5548-10.1796,4.0545-2.6743,8.3678-5.521,13.0265-8.6267,4.6583-3.1057,9.403-6.2113,14.0617-9.317.6041-.4315,1.4666-.9492,2.5882-1.5531,1.1213-.6038,1.8115-.6038,2.2429,0h0ZM73.7055,154.8475h0c-.3453-6.2977-2.2429-13.2853-5.6935-21.0493-3.451-7.7643-7.8504-15.4421-13.1129-23.0336-5.2622-7.5915-11.0421-14.6656-17.3399-21.3082-6.2113-6.5566-12.2501-11.9052-18.1164-15.7872,12.5952,10.9561,23.7236,22.9473,33.3859,35.9737,9.5758,13.0265,16.5635,28.1234,20.8768,45.2046h0ZM117.3572,46.4086c.1724,1.2078.6903,3.1057,1.4666,5.6938.8627,2.5019,2.1568,5.1761,4.1409,8.1093,2.0704,3.192,3.7095,5.2625,4.8311,6.2977s3.1057,2.7607,5.9524,5.2625c-.6039-1.2076-2.9331-3.537-6.9876-6.8151-4.0548-3.3653-7.2465-9.5766-9.4033-18.5482h0ZM120.8078,44.942h0c7.5054,5.521,12.0777,10.6971,13.4578,15.7868,1.4666,5.0036,2.5018,7.9368,3.2781,8.7995-.9487-3.537-1.7251-6.0385-2.2429-7.5915-.5175-1.5527-1.8115-3.882-3.882-6.9876-3.5371-5.2625-6.9877-8.5407-10.6111-10.0072h0ZM167.479,53.6551c-4.3134,2.8467-6.9016,4.5722-7.6779,5.0897-.8628.5177-1.2078.7763-1.0352.6903q.1724-.0864.0864-.0864c-.0864.0864-1.5529,1.0352-4.3998,2.9331-.345.1725-2.1568,1.4666-5.6074,3.7095-3.4506,2.3294-6.729,4.4858-9.8347,6.5563-7.678,5.0897-14.752,13.1129-21.1358,23.8964-6.3837,10.87-12.4226,21.3946-18.2025,31.6604-5.78,10.2658-11.3874,18.7203-16.9084,25.1902-5.5212,6.5563-11.301,8.0228-17.1674,4.3998-13.8028-8.6267-24.9316-18.8065-33.2134-30.4528-5.1761-7.5053-9.317-15.2694-12.4226-23.2061s-5.3486-16.2185-6.8152-24.7588c-.9488-6.4701,2.7607-11.3009,10.9561-14.4069,8.2817-3.1057,18.2025-5.6939,29.9348-7.678,11.6463-1.9839,23.5512-4.0544,35.6289-6.1248,12.1637-2.0704,21.4807-5.3486,28.2097-9.7484,4.8311-3.192,9.6619-6.3837,14.4067-9.5758,4.8311-3.1922,9.5759-6.3838,14.3206-9.4895,1.8979-1.2941,2.9331-2.3294,3.0192-3.192.0865-1.1216.6903-1.5529,1.898-1.2941.9488.2589,2.6743,1.3802,5.0036,3.3646,2.4154,1.8979,5.435,5.521,9.317,10.9561,3.9685,5.9524,6.2978,10.8699,6.9877,14.838.7763,3.9683.2588,5.78-1.5531,5.4349-1.1209-.086-2.3287.3453-3.7952,1.2945Z"/>
      <path class="cls-3" d="M164.6323,32.5194c-2.7607-4.2273-5.521-7.5054-8.1954-10.0072-2.6743-2.5018-4.3134-3.537-5.0037-3.1057-.7763.5177-.345,2.3294,1.2078,5.6074,1.5529,3.2782,3.7095,6.9876,6.4702,11.1285,2.8467,4.2274,5.521,7.7644,8.0228,10.6111s4.1409,3.9685,4.9172,3.537c.5178-.345.1725-2.3292-1.1216-5.9524-1.4666-3.6234-3.537-7.5918-6.2973-11.8187h0ZM150.743,23.0299c-.4313-.6038-1.1216-.6038-2.2429,0-1.1216.6039-1.9841,1.1216-2.5882,1.5531-4.6587,3.1057-9.4035,6.2113-14.0617,9.317-4.6587,3.1057-8.972,5.9524-13.0265,8.6267-6.9016,4.5722-16.4771,8.0228-28.5548,10.1796-12.0777,2.1568-23.8964,4.2273-35.4562,6.2113-11.5599,1.9841-21.3082,4.3998-29.4176,7.2465-8.1092,2.8468-11.4734,7.2462-10.1796,13.1125,3.4506,18.4615,9.1444,33.5584,16.9084,45.1183,7.8504,11.6463,19.2378,22.3435,34.3346,32.0918,5.0897,3.4506,10.2658,1.898,15.5283-4.7447,5.2626-6.6426,10.6971-15.0968,16.4771-25.363,5.78-10.2658,11.8187-20.7907,18.1165-31.5744,6.3837-10.7835,13.1989-18.5474,20.5318-23.4649,4.4858-3.0193,9.058-6.0389,13.7168-9.0582,4.6586-3.1057,9.2306-6.1249,13.8892-9.2306.6903-.4313,1.5529-1.0352,2.6743-1.639,1.2076-.6903,1.4666-1.2941.8627-1.898-4.4858-4.9172-7.7643-8.7995-9.6619-11.4738-1.8979-2.7604-4.4862-7.7637-7.8504-15.0102h0ZM73.7055,154.8475c-4.3133-17.0812-11.301-32.1781-20.8768-45.2046-9.6623-13.0264-20.7907-25.0177-33.3859-35.9737,5.8664,3.882,11.9051,9.2306,18.1164,15.7872,6.2978,6.6426,12.0777,13.7168,17.3399,21.3082,5.2625,7.5915,9.6619,15.2694,13.1129,23.0336,3.4506,7.764,5.3482,14.7516,5.6935,21.0493h0ZM117.3572,46.4086c.1724,1.2078.6903,3.1057,1.4666,5.6938.8627,2.5019,2.1568,5.1761,4.1409,8.1093,2.0704,3.192,3.7095,5.2625,4.8311,6.2977s3.1057,2.7607,5.9524,5.2625c-.6039-1.2076-2.9331-3.537-6.9876-6.8151-4.0548-3.3653-7.2465-9.5766-9.4033-18.5482h0ZM120.8078,44.942c3.6234,1.4666,7.074,4.7447,10.6111,10.0072,2.0704,3.1057,3.3645,5.4349,3.882,6.9876.5177,1.5529,1.2941,4.0545,2.2429,7.5915-.7763-.8627-1.8115-3.7959-3.2781-8.7995-1.3802-5.0897-5.9524-10.2658-13.4578-15.7868h0ZM167.479,53.6551c-4.3134,2.8467-6.9016,4.5722-7.6779,5.0897-.8628.5177-1.2078.7763-1.0352.6903q.1724-.0864.0864-.0864c-.0864.0864-1.5529,1.0352-4.3998,2.9331-.345.1725-2.1568,1.4666-5.6074,3.7095-3.4506,2.3294-6.729,4.4858-9.8347,6.5563-7.678,5.0897-14.752,13.1129-21.1358,23.8964-6.3837,10.87-12.4226,21.3946-18.2025,31.6604-5.78,10.2658-11.3874,18.7203-16.9084,25.1902-5.5212,6.5563-11.301,8.0228-17.1674,4.3998-13.8028-8.6267-24.9316-18.8065-33.2134-30.4528-5.1761-7.5053-9.317-15.2694-12.4226-23.2061s-5.3486-16.2185-6.8152-24.7588c-.9488-6.4701,2.7607-11.3009,10.9561-14.4069,8.2817-3.1057,18.2025-5.6939,29.9348-7.678,11.6463-1.9839,23.5512-4.0544,35.6289-6.1248,12.1637-2.0704,21.4807-5.3486,28.2097-9.7484,4.8311-3.192,9.6619-6.3837,14.4067-9.5758,4.8311-3.1922,9.5759-6.3838,14.3206-9.4895,1.8979-1.2941,2.9331-2.3294,3.0192-3.192.0865-1.1216.6903-1.5529,1.898-1.2941.9488.2589,2.6743,1.3802,5.0036,3.3646,2.4154,1.8979,5.435,5.521,9.317,10.9561,3.9685,5.9524,6.2978,10.8699,6.9877,14.838.7763,3.9683.2588,5.78-1.5531,5.4349-1.1209-.086-2.3287.3453-3.7952,1.2945Z"/>
    </g>
    <path class="cls-1" d="M173.0864,51.4122c20.5319,14.6655,13.8028,35.3698,5.78,35.3698h-2.6743c-4.3997,0-13.7166-9.4894-6.4701-18.6339,7.16-9.1444,3.3645-16.7359,3.3645-16.7359h0Z"/>
  </g>
</svg>