<?xml version="1.0" encoding="utf-8"?>
<!-- Generator: Adobe Illustrator 26.3.1, SVG Export Plug-In . SVG Version: 6.00 Build 0)  -->
<svg version="1.1" id="Capa_1" xmlns:xodm="http://www.corel.com/coreldraw/odm/2003"
	 xmlns="http://www.w3.org/2000/svg" xmlns:xlink="http://www.w3.org/1999/xlink" x="0px" y="0px" viewBox="0 0 909 189"
	 style="enable-background:new 0 0 909 189;" xml:space="preserve">
<style type="text/css">
	.st0{fill-rule:evenodd;clip-rule:evenodd;fill:#FFCC29;stroke:#3E4095;stroke-width:5;stroke-miterlimit:10;}
	.st1{fill-rule:evenodd;clip-rule:evenodd;fill:#3E4095;}
	.st2{fill-rule:evenodd;clip-rule:evenodd;fill:#FFCC29;}
	.st3{fill:none;stroke:#3E4095;stroke-width:0.216;stroke-miterlimit:10;}
	.st4{fill:#FFCC29;}
</style>
<g id="Capa_x0020_1">
	<g id="_1606271951056">
		<g>
			<polygon class="st0" points="166.9,102.8 193.2,187 114,187 131.1,135.2 152.1,135.2 143.1,166.8 164.7,166.8 141.9,102.8 			"/>
		</g>
		<g>
			<polygon class="st0" points="232.1,102.8 232.1,166.8 260.8,166.8 260.8,187 208.9,187 208.9,102.8 			"/>
		</g>
		<g>
			<path class="st0" d="M319.7,166.4c4.9-5.7,8.2-10,9.9-12.9c2.9-4.9,4.3-9.5,4.3-13.9c0-5.8-2.2-10.5-6.5-14
				c-3.1-2.5-6.7-3.8-10.8-3.8c-4.9,0-9.1,1.8-12.5,5.5c-3.3,3.5-4.9,7.4-4.9,11.9c0,6.1,3.5,12.8,10.5,20.1l26.5,27.7h-30.6
				l-14.4-14.7c-5.2-5.3-9-10.4-11.4-15.4c-2.4-5-3.5-10.4-3.5-16.1c0-6,1.3-11.8,4-17.1c4.1-8.4,10.6-14.4,19.4-17.9
				c5-2,10.6-3,16.7-3c12.2,0,22.2,3.9,30,11.7c3.8,3.8,6.7,8.2,8.6,13.3c1.6,4.1,2.4,8.2,2.4,12.3c0,4.9-0.9,9.4-2.7,13.3
				c-1.8,4-4.9,8.3-9.3,13L319.7,166.4L319.7,166.4z"/>
		</g>
		<g>
			<path class="st0" d="M439.6,102.8V187h-39.4c-7.6,0-13.2-1.2-16.7-3.6c-3.7-2.3-6.3-5.5-7.9-9.3c-1.6-3.9-2.4-9-2.4-15.4v-56
				h23.1v53.4c0,4.4,0.6,7.2,1.9,8.6c1.2,1.4,3.8,2,7.8,2h10.4v-64H439.6z"/>
		</g>
		<g>
			<path class="st0" d="M478.4,135.2V187h-23.1v-51.8H478.4z M478.4,102.8V123h-23.1v-20.2H478.4z"/>
		</g>
		<g>
			<path class="st0" d="M494.2,102.8h59.6c7.2,0,12.6,0.5,16.1,1.4c3.5,0.9,6.6,2.7,9.2,5.4c2.5,2.5,4.3,5.5,5.3,8.9
				c1.1,3.4,1.6,8,1.6,13.7V187h-23.1v-53.9c0-3.9-0.7-6.6-2-8c-1.3-1.4-3.9-2.1-7.8-2.1h-35.7v64h-23.1L494.2,102.8L494.2,102.8z
				 M550.7,135.2V187h-21.3v-51.8H550.7z"/>
		</g>
		<g>
			<path class="st0" d="M624.8,135.2V187h-23.1v-51.8H624.8z M624.8,102.8V123h-23.1v-20.2H624.8z"/>
		</g>
		<g>
			<polygon class="st0" points="693.4,102.8 719.8,187 640.6,187 657.6,135.2 678.6,135.2 669.6,166.8 691.3,166.8 668.5,102.8 			
				"/>
		</g>
		<path class="st1" d="M766.3,141.7c-0.2,1.2-0.3,2.2-0.3,3c0,1,0.3,2.1,0.9,3.1c0.6,1.1,1.6,2.5,3.2,4.2c3.1,3.5,5.2,6,6.4,7.5
			c1.2,1.5,2.1,2.9,2.8,4.2c1.6,2.9,2.5,5.9,2.5,8.8c0,3-0.8,5.9-2.3,8.5c-3,5.2-8.4,7.9-16.2,7.9h-13.1v-11.4h11.6
			c2.4,0,4.2-0.6,5.2-1.8c0.9-1,1.3-2.1,1.3-3.2c0-1.4-0.5-2.8-1.4-4.2c-0.9-1.4-3.3-4.3-7.1-8.7c-3.2-3.7-5.3-6.5-6.1-8.5
			c-0.7-1.8-1.1-3.5-1.1-5c0-1.1,0.2-2.6,0.5-4.4L766.3,141.7L766.3,141.7z M798.7,177.8V189h-11.1v-11.2H798.7z M805.2,141.7h16.2
			c4.8,0,8.3,0.4,10.3,1.3c3,1.3,5.1,3.3,6.3,6.3c0.7,1.6,1,3.3,1,5.1c0,3.3-0.9,6-2.8,8.1c-0.9,1-1.8,1.7-2.8,2.2
			c-1,0.5-2.5,1-4.3,1.4c1.5,0.3,2.6,0.7,3.4,1.1c0.8,0.4,1.5,1,2.2,1.8c1.5,1.7,2.2,4.2,2.2,7.5V189h-13v-11.1
			c0-2.5-0.5-4.3-1.6-5.2c-1.1-0.9-3.1-1.4-6.1-1.4h-11v-11.4h15.3c2.2,0,3.6-0.4,4.2-1.2c0.5-0.6,0.8-1.4,0.8-2.2
			c0-1.2-0.4-2-1.1-2.6c-0.7-0.6-1.9-0.8-3.5-0.8h-15.8L805.2,141.7L805.2,141.7z M856.5,177.8V189h-11.1v-11.2H856.5z M877.3,141.7
			v35.9h16.1V189h-29.1v-47.3L877.3,141.7L877.3,141.7z M909,177.8V189h-11.1v-11.2H909z"/>
	</g>
	<g id="_1606271949712">
		<polygon class="st2" points="27.7,143.1 43,147.8 48.9,147.8 56,145.5 64.3,145.5 80.9,145.5 92.7,150.2 88,153.7 81.7,166.9 
			72.6,172.7 66.1,174.4 59.6,171.5 52.5,166.8 45.4,160.8 38.3,154.9 		"/>
		<g>
			<path class="st1" d="M175.7,27.6c-3.2-4.9-6.4-8.7-9.5-11.6c-3.1-2.9-5-4.1-5.8-3.6c-0.9,0.6-0.4,2.7,1.4,6.5
				c1.8,3.8,4.3,8.1,7.5,12.9c3.3,4.9,6.4,9,9.3,12.3c2.9,3.3,4.8,4.6,5.7,4.1c0.6-0.4,0.2-2.7-1.3-6.9
				C181.3,37.1,178.9,32.5,175.7,27.6L175.7,27.6z M159.6,16.6c-0.5-0.7-1.3-0.7-2.6,0c-1.3,0.7-2.3,1.3-3,1.8
				c-5.4,3.6-10.9,7.2-16.3,10.8c-5.4,3.6-10.4,6.9-15.1,10c-8,5.3-19.1,9.3-33.1,11.8c-14,2.5-27.7,4.9-41.1,7.2
				c-13.4,2.3-24.7,5.1-34.1,8.4C4.9,69.9,1,75,2.5,81.8c4,21.4,10.6,38.9,19.6,52.3c9.1,13.5,22.3,25.9,39.8,37.2
				c5.9,4,11.9,2.2,18-5.5c6.1-7.7,12.4-17.5,19.1-29.4c6.7-11.9,13.7-24.1,21-36.6c7.4-12.5,15.3-21.5,23.8-27.2
				c5.2-3.5,10.5-7,15.9-10.5c5.4-3.6,10.7-7.1,16.1-10.7c0.8-0.5,1.8-1.2,3.1-1.9c1.4-0.8,1.7-1.5,1-2.2c-5.2-5.7-9-10.2-11.2-13.3
				C166.5,30.8,163.5,25,159.6,16.6L159.6,16.6z M70.3,169.4c-5-19.8-13.1-37.3-24.2-52.4C34.9,101.9,22,88,7.4,75.3
				c6.8,4.5,13.8,10.7,21,18.3c7.3,7.7,14,15.9,20.1,24.7c6.1,8.8,11.2,17.7,15.2,26.7C67.7,154,69.9,162.1,70.3,169.4L70.3,169.4z
				 M120.9,43.7c0.2,1.4,0.8,3.6,1.7,6.6c1,2.9,2.5,6,4.8,9.4c2.4,3.7,4.3,6.1,5.6,7.3c1.3,1.2,3.6,3.2,6.9,6.1
				c-0.7-1.4-3.4-4.1-8.1-7.9C127.1,61.3,123.4,54.1,120.9,43.7L120.9,43.7z M124.9,42c4.2,1.7,8.2,5.5,12.3,11.6
				c2.4,3.6,3.9,6.3,4.5,8.1c0.6,1.8,1.5,4.7,2.6,8.8c-0.9-1-2.1-4.4-3.8-10.2C138.9,54.4,133.6,48.4,124.9,42L124.9,42z M179,52.1
				c-5,3.3-8,5.3-8.9,5.9c-1,0.6-1.4,0.9-1.2,0.8c0.2-0.1,0.2-0.1,0.1-0.1c-0.1,0.1-1.8,1.2-5.1,3.4c-0.4,0.2-2.5,1.7-6.5,4.3
				c-4,2.7-7.8,5.2-11.4,7.6c-8.9,5.9-17.1,15.2-24.5,27.7c-7.4,12.6-14.4,24.8-21.1,36.7c-6.7,11.9-13.2,21.7-19.6,29.2
				c-6.4,7.6-13.1,9.3-19.9,5.1c-16-10-28.9-21.8-38.5-35.3c-6-8.7-10.8-17.7-14.4-26.9c-3.6-9.2-6.2-18.8-7.9-28.7
				C-1,74.3,3.3,68.7,12.8,65.1c9.6-3.6,21.1-6.6,34.7-8.9c13.5-2.3,27.3-4.7,41.3-7.1c14.1-2.4,24.9-6.2,32.7-11.3
				c5.6-3.7,11.2-7.4,16.7-11.1c5.6-3.7,11.1-7.4,16.6-11c2.2-1.5,3.4-2.7,3.5-3.7c0.1-1.3,0.8-1.8,2.2-1.5c1.1,0.3,3.1,1.6,5.8,3.9
				c2.8,2.2,6.3,6.4,10.8,12.7c4.6,6.9,7.3,12.6,8.1,17.2c0.9,4.6,0.3,6.7-1.8,6.3C182.1,50.5,180.7,51,179,52.1z"/>
			<path id="_1_7" class="st3" d="M175.7,27.6c-3.2-4.9-6.4-8.7-9.5-11.6c-3.1-2.9-5-4.1-5.8-3.6c-0.9,0.6-0.4,2.7,1.4,6.5
				c1.8,3.8,4.3,8.1,7.5,12.9c3.3,4.9,6.4,9,9.3,12.3c2.9,3.3,4.8,4.6,5.7,4.1c0.6-0.4,0.2-2.7-1.3-6.9
				C181.3,37.1,178.9,32.5,175.7,27.6L175.7,27.6z M159.6,16.6c-0.5-0.7-1.3-0.7-2.6,0c-1.3,0.7-2.3,1.3-3,1.8
				c-5.4,3.6-10.9,7.2-16.3,10.8c-5.4,3.6-10.4,6.9-15.1,10c-8,5.3-19.1,9.3-33.1,11.8c-14,2.5-27.7,4.9-41.1,7.2
				c-13.4,2.3-24.7,5.1-34.1,8.4C4.9,69.9,1,75,2.5,81.8c4,21.4,10.6,38.9,19.6,52.3c9.1,13.5,22.3,25.9,39.8,37.2
				c5.9,4,11.9,2.2,18-5.5c6.1-7.7,12.4-17.5,19.1-29.4c6.7-11.9,13.7-24.1,21-36.6c7.4-12.5,15.3-21.5,23.8-27.2
				c5.2-3.5,10.5-7,15.9-10.5c5.4-3.6,10.7-7.1,16.1-10.7c0.8-0.5,1.8-1.2,3.1-1.9c1.4-0.8,1.7-1.5,1-2.2c-5.2-5.7-9-10.2-11.2-13.3
				C166.5,30.8,163.5,25,159.6,16.6L159.6,16.6z M70.3,169.4c-5-19.8-13.1-37.3-24.2-52.4C34.9,101.9,22,88,7.4,75.3
				c6.8,4.5,13.8,10.7,21,18.3c7.3,7.7,14,15.9,20.1,24.7c6.1,8.8,11.2,17.7,15.2,26.7C67.7,154,69.9,162.1,70.3,169.4L70.3,169.4z
				 M120.9,43.7c0.2,1.4,0.8,3.6,1.7,6.6c1,2.9,2.5,6,4.8,9.4c2.4,3.7,4.3,6.1,5.6,7.3c1.3,1.2,3.6,3.2,6.9,6.1
				c-0.7-1.4-3.4-4.1-8.1-7.9C127.1,61.3,123.4,54.1,120.9,43.7L120.9,43.7z M124.9,42c4.2,1.7,8.2,5.5,12.3,11.6
				c2.4,3.6,3.9,6.3,4.5,8.1c0.6,1.8,1.5,4.7,2.6,8.8c-0.9-1-2.1-4.4-3.8-10.2C138.9,54.4,133.6,48.4,124.9,42L124.9,42z M179,52.1
				c-5,3.3-8,5.3-8.9,5.9c-1,0.6-1.4,0.9-1.2,0.8c0.2-0.1,0.2-0.1,0.1-0.1c-0.1,0.1-1.8,1.2-5.1,3.4c-0.4,0.2-2.5,1.7-6.5,4.3
				c-4,2.7-7.8,5.2-11.4,7.6c-8.9,5.9-17.1,15.2-24.5,27.7c-7.4,12.6-14.4,24.8-21.1,36.7c-6.7,11.9-13.2,21.7-19.6,29.2
				c-6.4,7.6-13.1,9.3-19.9,5.1c-16-10-28.9-21.8-38.5-35.3c-6-8.7-10.8-17.7-14.4-26.9c-3.6-9.2-6.2-18.8-7.9-28.7
				C-1,74.3,3.3,68.7,12.8,65.1c9.6-3.6,21.1-6.6,34.7-8.9c13.5-2.3,27.3-4.7,41.3-7.1c14.1-2.4,24.9-6.2,32.7-11.3
				c5.6-3.7,11.2-7.4,16.7-11.1c5.6-3.7,11.1-7.4,16.6-11c2.2-1.5,3.4-2.7,3.5-3.7c0.1-1.3,0.8-1.8,2.2-1.5c1.1,0.3,3.1,1.6,5.8,3.9
				c2.8,2.2,6.3,6.4,10.8,12.7c4.6,6.9,7.3,12.6,8.1,17.2c0.9,4.6,0.3,6.7-1.8,6.3C182.1,50.5,180.7,51,179,52.1z"/>
		</g>
		<path class="st4" d="M185.5,49.5c23.8,17,16,41,6.7,41h-3.1c-5.1,0-15.9-11-7.5-21.6C189.9,58.3,185.5,49.5,185.5,49.5L185.5,49.5
			z"/>
	</g>
	<g id="_1606271945872">
		<path class="st2" d="M480,5.4c13.7,9.9,27.5,19.7,41.2,29.6C535.6,23.3,550,11.6,564.5,0c-11.3,13.8-22.5,27.6-33.8,41.3
			c21.1,21.2,42.2,42.4,63.4,63.7c-23.4-17.9-46.8-35.9-70.2-53.8c-12.8,12.1-25.6,24.1-38.4,36.2c10.2-15.1,20.5-30.1,30.7-45.2
			C504.1,29.9,492,17.6,480,5.4L480,5.4z"/>
		<path class="st2" d="M327,33.2c-10.1,9.2-20.2,18.4-30.3,27.6L311.4,89l-21-21.4l-0.4-0.5l0,0l-1.8-1.8
			c-11.7,7.5-23.5,14.9-35.2,22.4c10.1-9.2,20.2-18.4,30.3-27.6L268.6,32l21,21.4l0.4,0.5l0,0l1.8,1.8
			C303.5,48.1,315.3,40.7,327,33.2z"/>
	</g>
</g>
</svg>
